<svg id="Layer_1" data-name="Layer 1" xmlns="http://www.w3.org/2000/svg" xmlns:xlink="http://www.w3.org/1999/xlink" viewBox="0 0 790 464"><defs><style>.cls-1{fill:url(#linear-gradient);}</style><linearGradient id="linear-gradient" x1="638.26" y1="977.66" x2="651.59" y2="524.42" gradientUnits="userSpaceOnUse"><stop offset="0" stop-color="#48c6ef"/><stop offset="0" stop-color="#4bc1ed"/><stop offset="1" stop-color="#6f86d6"/></linearGradient></defs><title>logo-less-symmetry</title><path class="cls-1" d="M1040,740A135,135,0,0,1,905,875H368a118,118,0,0,1-13.85-235.18,166.56,166.56,0,0,0,90,133.41A166.38,166.38,0,0,1,365.17,639q-.17-3.75-.17-7.54A166.63,166.63,0,0,1,568.5,469.13a193.61,193.61,0,0,0-18.88,218.26A192.55,192.55,0,0,1,531,604.5C531,497.63,617.63,411,724.5,411S918,497.63,918,604.5a193.32,193.32,0,0,1-88,162.22A193.49,193.49,0,0,0,930.23,607.36,135,135,0,0,1,1040,740Z" transform="translate(-250 -411)"/><text x="-250" y="-411"/></svg>